# xmcd
#
# Track frame offsets:
#	183
#	12483
#	45908
#	64608
#	86945
#	104758
#	125515
#	143808
#	162073
#	180033
#	200103
#	216033
#	236233
#	248020
#	270708
#
# Disc length: 3969 seconds
#
# Revision: 0
# Processed by: cddbd v1.5.1PL0 Copyright (c) Steve Scherf et al.
# Submitted via: dBpowerAMP V4.0
#
DISCID=d30f7f0f
DTITLE=Ella Fitzgerald/Sarah Vaughan - Ella Fitzgerald Sarah Vaughan
DYEAR=1993
DGENRE=Blues
TTITLE0=Summertime
TTITLE1=Aspects of Duke: Moon Indigo - Do nothin' till You hear from Me - It don't mean a Thing
TTITLE2=Something to live for
TTITLE3=Imagine my frustration
TTITLE4=Lemon drop
TTITLE5=Don't be that way
TTITLE6=Dream dancing
TTITLE7=That's all
TTITLE8=I didn't know what time it was
TTITLE9=The Island
TTITLE10=I let a song go out of my heart
TTITLE11=Lush Life
TTITLE12=When your lover has gone
TTITLE13=I gotta right to sing the blues
TTITLE14=How long has this been going on?
EXTD=
EXTT0=
EXTT1=
EXTT2=
EXTT3=
EXTT4=
EXTT5=
EXTT6=
EXTT7=
EXTT8=
EXTT9=
EXTT10=
EXTT11=
EXTT12=
EXTT13=
EXTT14=
PLAYORDER=
